<?xml version="1.0" encoding="UTF-8"?>
<svg width="60px" height="60px" viewBox="0 0 60 60" version="1.1" xmlns="http://www.w3.org/2000/svg" xmlns:xlink="http://www.w3.org/1999/xlink">
    <title>Not Sure_Circle</title>
    <g id="Login" stroke="none" stroke-width="1" fill="none" fill-rule="evenodd">
        <g id="Login---Desktop" transform="translate(-1095.000000, -454.000000)">
            <g id="Not-Sure_Circle" transform="translate(1095.000000, 454.000000)">
                <path d="M32.1582734,4.31654676 C16.7817124,4.31654676 4.31654676,16.7817124 4.31654676,32.1582734 C4.31654676,47.5348344 16.7817124,60 32.1582734,60 C47.5348344,60 60,47.5348344 60,32.1582734 C59.9880978,16.7866451 47.5299017,4.32844892 32.1582734,4.31654676 Z M32.6330935,45.971223 C32.128853,47.2808767 31.0938264,48.3159033 29.7841727,48.8201439 C28.434421,49.3661453 26.9252912,49.3661453 25.5755396,48.8201439 C24.2775574,48.2980957 23.2486669,47.2692052 22.7266187,45.971223 C22.1806173,44.6214714 22.1806173,43.1123416 22.7266187,41.7625899 C23.2902842,40.4548434 24.3556632,39.4283468 25.6834532,38.9136691 C27.0332049,38.3676676 28.5423347,38.3676676 29.8920863,38.9136691 C31.1900685,39.4357172 32.218959,40.4646077 32.7410072,41.7625899 C33.2870086,43.1123416 33.2870086,44.6214714 32.7410072,45.971223 L32.6330935,45.971223 Z M41.2661871,21.0863309 C41.009069,22.050811 40.601161,22.9686038 40.057554,23.8057554 C39.4388042,24.7877652 38.7151282,25.6995969 37.8992806,26.5251799 C36.7663143,27.5961632 35.5699059,28.597975 34.3165468,29.5251799 C33.5611546,30.0495249 32.9400342,30.7445881 32.5035971,31.5539568 C32.1963747,32.1711032 32.0339819,32.8502004 32.028777,33.5395683 L32.028777,35.2446043 L23.3956835,35.2446043 L23.3956835,32.676259 C23.3669643,31.6625384 23.5280037,30.6523824 23.8705036,29.6978417 C24.2087861,28.8275337 24.7401063,28.0453124 25.4244604,27.4100719 C26.5251799,26.3741007 27.5827338,25.4676259 28.4460432,24.6906475 C29.3093525,23.9136691 30.1294964,23.1798561 30.7985612,22.5323741 C31.3905606,21.9556773 31.9121789,21.3108992 32.352518,20.6115108 C32.7067156,20.041451 32.8936719,19.3833648 32.8920863,18.7122302 C32.9588089,17.5860058 32.5243003,16.4878842 31.705036,15.7122302 C30.8793839,14.9828684 29.8061048,14.5967968 28.705036,14.6330935 C27.1646629,14.5198502 25.649196,15.0695014 24.5395683,16.1438849 C23.9101939,16.8037723 23.4444702,17.6021558 23.1798561,18.4748201 C22.9597415,19.2482855 22.234797,19.7673816 21.4316547,19.7266187 L16.3597122,19.4028777 C14.7841727,19.294964 14.028777,18.323741 14.2014388,17.2446043 C14.7142899,14.3180765 16.2427753,11.6661544 18.5179856,9.75539568 C21.3713685,7.51617495 24.9299422,6.36824794 28.5539568,6.51798561 C30.2580882,6.50090497 31.954544,6.74845645 33.5827338,7.25179856 C35.1044099,7.69480417 36.5261521,8.42766098 37.7697842,9.41007194 C38.9824499,10.3866787 39.9567336,11.6266761 40.618705,13.0359712 C41.3513321,14.5786072 41.7134718,16.2710558 41.676259,17.9784173 C41.6497358,19.0287626 41.4975742,20.0721566 41.2230216,21.0863309 L41.2661871,21.0863309 Z" id="Shape" fill="#DEE8F0" fill-rule="nonzero"></path>
                <path d="M33.0431655,43.8776978 C33.0578029,44.6177903 32.9181473,45.3528201 32.6330935,46.0359712 C32.128853,47.3456249 31.0938264,48.3806515 29.7841727,48.8848921 C28.434421,49.4308935 26.9252912,49.4308935 25.5755396,48.8848921 C24.2775574,48.3628439 23.2486669,47.3339534 22.7266187,46.0359712 C22.1806173,44.6862196 22.1806173,43.1770898 22.7266187,41.8273381 C23.2759723,40.4950884 24.3432693,39.4433725 25.6834532,38.9136691 C27.0332049,38.3676676 28.5423347,38.3676676 29.8920863,38.9136691 C31.1900685,39.4357172 32.218959,40.4646077 32.7410072,41.7625899 C32.9828488,42.4401547 33.0856153,43.15952 33.0431655,43.8776978 Z" id="Path" stroke="#B3931A" stroke-width="2.15827338" stroke-linecap="round" stroke-linejoin="round"></path>
                <path d="M41.5683453,18.0215827 C41.5737062,19.0531665 41.4578032,20.0818055 41.2230216,21.0863309 C40.9659035,22.050811 40.5579956,22.9686038 40.0143885,23.8057554 C39.3956387,24.7877652 38.6719627,25.6995969 37.8561151,26.5251799 C36.7370831,27.5948072 35.5551195,28.5965934 34.3165468,29.5251799 C33.5611546,30.0495249 32.9400342,30.7445881 32.5035971,31.5539568 C32.1963747,32.1711032 32.0339819,32.8502004 32.028777,33.5395683 L32.028777,35.2446043 L23.3956835,35.2446043 L23.3956835,32.676259 C23.3669643,31.6625384 23.5280037,30.6523824 23.8705036,29.6978417 C24.2087861,28.8275337 24.7401063,28.0453124 25.4244604,27.4100719 C26.5251799,26.3741007 27.5827338,25.4676259 28.4460432,24.6906475 C29.3093525,23.9136691 30.1294964,23.1798561 30.7985612,22.5323741 C31.3905606,21.9556773 31.9121789,21.3108992 32.352518,20.6115108 C32.7067156,20.041451 32.8936719,19.3833648 32.8920863,18.7122302 C32.9588089,17.5860058 32.5243003,16.4878842 31.705036,15.7122302 C30.8793839,14.9828684 29.8061048,14.5967968 28.705036,14.6330935 C27.1646629,14.5198502 25.649196,15.0695014 24.5395683,16.1438849 C23.9101939,16.8037723 23.4444702,17.6021558 23.1798561,18.4748201 C22.9597415,19.2482855 22.234797,19.7673816 21.4316547,19.7266187 L16.3597122,19.4028777 C14.7841727,19.294964 14.028777,18.323741 14.2014388,17.2446043 C14.7142899,14.3180765 16.2427753,11.6661544 18.5179856,9.75539568 C21.3713685,7.51617495 24.9299422,6.36824794 28.5539568,6.51798561 C30.2580882,6.50090497 31.954544,6.74845645 33.5827338,7.25179856 C35.1044099,7.69480417 36.5261521,8.42766098 37.7697842,9.41007194 C38.9824499,10.3866787 39.9567336,11.6266761 40.618705,13.0359712 C41.3208288,14.6006955 41.6460891,16.3083122 41.5683453,18.0215827 L41.5683453,18.0215827 Z" id="Path" stroke="#B3931A" stroke-width="2.15827338" stroke-linecap="round" stroke-linejoin="round"></path>
                <path d="M27.8417266,2.15827338 C42.0263062,2.15827338 53.5251799,13.6571471 53.5251799,27.8417266 C53.5251799,42.0263062 42.0263062,53.5251799 27.8417266,53.5251799 C13.6571471,53.5251799 2.15827338,42.0263062 2.15827338,27.8417266 C2.18203659,13.6670018 13.6670018,2.18203659 27.8417266,2.15827338 M27.8417266,0 C12.4651656,0 0,12.4651656 0,27.8417266 C0,43.2182876 12.4651656,55.6834532 27.8417266,55.6834532 C43.2182876,55.6834532 55.6834532,43.2182876 55.6834532,27.8417266 C55.6715511,12.4700983 43.2133549,0.0119021566 27.8417266,0 Z" id="Shape" fill="#004A92" fill-rule="nonzero"></path>
            </g>
        </g>
    </g>
</svg>